<?xml version="1.0" encoding="UTF-8"?><svg id="a" xmlns="http://www.w3.org/2000/svg" viewBox="0 0 172 124"><g id="b"><path d="M150.839,37.88c-8.718-.968-15.751-8.001-16.719-16.719-.653-5.883,1.401-11.28,5.049-15.161H18c-6.627,0-12,5.373-12,12v88c0,6.627,5.373,12,12,12h136c6.627,0,12-5.373,12-12V32.83c-3.88,3.649-9.278,5.703-15.161,5.049Z" fill="#ffd47a" isolation="isolate"/><rect x="38.962" y="32.387" width="94.076" height="59.226" rx="8" ry="8" fill="#fff" isolation="isolate"/><path d="M72.705,62.647c.415-.33,1.08-.33,1.496,0l4.654,2.805c.499.33,1.163.247,1.579-.082l16.121-12.705c.449-.372,1.101-.408,1.59-.111.106.065.184.169.239.281l9.811,20.043c.105.215.168.456.136.693-.18,1.327-1.324,2.358-2.698,2.358h-38.422l-2.298-.019c-1.037-.008-1.614-1.202-.976-2.02l8.768-11.244Z" fill="#686C78"/><circle cx="75.621" cy="50.598" r="4.527" fill="#686C78"/></g><circle cx="155" cy="17" r="14" fill="none" stroke="#686C78" stroke-linecap="round" stroke-linejoin="round" stroke-width="3"/><path d="M159.2,12.8l-8.4,8.4" fill="none" stroke="#686C78" stroke-linecap="round" stroke-linejoin="round" stroke-width="3"/><path d="M150.8,12.8l8.4,8.4" fill="none" stroke="#686C78" stroke-linecap="round" stroke-linejoin="round" stroke-width="3"/></svg>